<svg width="501" height="501" viewBox="0 0 501 501" fill="none" xmlns="http://www.w3.org/2000/svg">
<rect width="500" height="500" transform="translate(0.5 0.5)" fill="#F5F7FA" style="fill:#F5F7FA;fill:color(display-p3 0.9608 0.9686 0.9804);fill-opacity:1;"/>
<mask id="mask0_2633_5201" style="mask-type:luminance" maskUnits="userSpaceOnUse" x="73" y="198" width="355" height="105">
<path d="M73.6523 198.48H427.231V302.357H73.6523V198.48Z" fill="white" style="fill:white;fill-opacity:1;"/>
</mask>
<g mask="url(#mask0_2633_5201)">
<path d="M253.41 220.906C251.808 219.464 251.08 217.732 251.08 215.568C251.08 213.404 251.808 211.673 253.41 210.23C255.011 208.787 257.049 208.066 259.524 208.066C261.999 208.066 264.037 208.787 265.638 210.086C267.24 211.529 267.968 213.26 267.968 215.28C267.968 217.588 267.24 219.464 265.638 220.906C264.037 222.349 261.999 223.07 259.524 223.07C257.049 223.07 255.011 222.349 253.41 220.906ZM252.827 228.12H266.512V274.864H252.827V228.12ZM333.914 211.817H347.599V274.864H333.914V211.817ZM366.379 272.556C362.448 270.536 359.391 267.65 357.062 264.044C354.878 260.437 353.713 256.253 353.713 251.636C353.713 247.02 354.878 242.836 357.062 239.229C359.245 235.622 362.302 232.737 366.379 230.717C370.309 228.697 374.822 227.687 379.772 227.687C384.722 227.687 389.235 228.697 393.165 230.717C397.095 232.737 400.153 235.622 402.336 239.229C404.52 242.836 405.685 247.02 405.685 251.636C405.685 256.253 404.52 260.437 402.336 264.044C400.153 267.65 397.095 270.536 393.165 272.556C389.235 274.575 384.867 275.586 379.772 275.586C374.822 275.586 370.455 274.575 366.379 272.556ZM388.507 261.014C390.69 258.706 391.855 255.532 391.855 251.636C391.855 247.741 390.69 244.567 388.507 242.259C386.323 239.95 383.411 238.796 379.918 238.796C376.423 238.796 373.512 239.95 371.182 242.259C368.854 244.567 367.689 247.741 367.689 251.636C367.689 255.532 368.854 258.706 371.182 261.014C373.512 263.322 376.423 264.477 379.918 264.477C383.266 264.477 386.177 263.322 388.507 261.014ZM412.673 220.906C411.072 219.464 410.343 217.732 410.343 215.568C410.343 213.404 411.072 211.673 412.673 210.23C414.274 208.787 416.312 208.066 418.787 208.066C421.262 208.066 423.3 208.787 424.901 210.086C426.503 211.529 427.231 213.26 427.231 215.28C427.231 217.588 426.503 219.464 424.901 220.906C423.3 222.349 421.262 223.07 418.787 223.07C416.166 223.07 414.128 222.349 412.673 220.906ZM411.945 228.12H425.63V274.864H411.945V228.12ZM230.7 211.817V251.492C230.7 255.388 229.535 258.561 227.205 260.87C224.876 263.178 222.111 264.333 218.616 264.333C215.122 264.333 212.211 263.178 209.881 260.87C207.553 258.561 206.388 255.388 206.388 251.492C206.388 247.597 207.553 244.423 209.881 242.114C212.211 239.806 215.122 238.652 218.616 238.652C221.383 238.652 223.712 239.373 225.75 240.961V229.562C223.129 228.12 219.926 227.398 216.287 227.398C211.774 227.398 207.843 228.409 204.204 230.284C200.564 232.304 197.799 235.045 195.761 238.652C193.723 242.259 192.703 246.587 192.703 251.348C192.703 256.109 193.723 260.437 195.761 264.044C197.799 267.65 200.564 270.536 204.204 272.411C207.843 274.431 211.774 275.297 216.287 275.297C222.692 275.297 227.642 273.277 230.991 269.238V274.575H244.093V211.817H230.7ZM324.743 238.796C322.705 235.189 319.939 232.304 316.3 230.428C312.66 228.409 308.729 227.398 304.362 227.398C297.811 227.398 292.861 229.418 289.513 233.458V228.12H276.411V291.744H289.95V251.348C289.95 247.453 291.115 244.278 293.298 241.97C295.482 239.662 298.394 238.508 301.887 238.508C305.381 238.508 308.293 239.662 310.477 241.97C312.66 244.278 313.825 247.453 313.825 251.348C313.825 255.243 312.66 258.417 310.477 260.725C308.293 263.034 305.381 264.188 301.887 264.188C299.122 264.188 296.937 263.467 294.899 262.024V273.277C297.52 274.575 300.723 275.297 304.216 275.297C308.584 275.297 312.66 274.287 316.154 272.267C319.794 270.247 322.559 267.506 324.597 263.9C326.635 260.293 327.655 256.109 327.655 251.203C327.8 246.587 326.781 242.403 324.743 238.796Z" fill="#090A0B" style="fill:#090A0B;fill:color(display-p3 0.0353 0.0392 0.0431);fill-opacity:1;"/>
<path fill-rule="evenodd" clip-rule="evenodd" d="M83.6641 198.48H145.599L175.624 250.419H153.722L133.705 215.841H93.6723L83.6641 198.48Z" fill="url(#paint0_linear_2633_5201)" style=""/>
<path fill-rule="evenodd" clip-rule="evenodd" d="M143.713 302.356H83.6641L93.6715 284.995H133.705L153.721 250.418H175.623L145.598 302.356H143.713Z" fill="url(#paint1_linear_2633_5201)" style=""/>
<path fill-rule="evenodd" clip-rule="evenodd" d="M93.6689 215.84L73.6523 250.418H113.685L133.702 215.84H93.6689Z" fill="url(#paint2_linear_2633_5201)" style=""/>
<path fill-rule="evenodd" clip-rule="evenodd" d="M93.6689 284.995L73.6523 250.418H113.685L133.702 284.995H93.6689Z" fill="url(#paint3_linear_2633_5201)" style=""/>
</g>
<defs>
<linearGradient id="paint0_linear_2633_5201" x1="129.644" y1="198.48" x2="129.644" y2="250.419" gradientUnits="userSpaceOnUse">
<stop stop-color="#842EFF" style="stop-color:#842EFF;stop-color:color(display-p3 0.5176 0.1804 1.0000);stop-opacity:1;"/>
<stop offset="0.995" stop-color="#3D04BD" style="stop-color:#3D04BD;stop-color:color(display-p3 0.2392 0.0157 0.7412);stop-opacity:1;"/>
</linearGradient>
<linearGradient id="paint1_linear_2633_5201" x1="129.644" y1="250.418" x2="129.644" y2="302.356" gradientUnits="userSpaceOnUse">
<stop stop-color="#BA89FF" style="stop-color:#BA89FF;stop-color:color(display-p3 0.7294 0.5373 1.0000);stop-opacity:1;"/>
<stop offset="1" stop-color="#EBDCFF" style="stop-color:#EBDCFF;stop-color:color(display-p3 0.9216 0.8627 1.0000);stop-opacity:1;"/>
</linearGradient>
<linearGradient id="paint2_linear_2633_5201" x1="103.677" y1="215.84" x2="103.677" y2="250.417" gradientUnits="userSpaceOnUse">
<stop stop-color="#FFACCF" style="stop-color:#FFACCF;stop-color:color(display-p3 1.0000 0.6745 0.8118);stop-opacity:1;"/>
<stop offset="1" stop-color="#FFCEE3" style="stop-color:#FFCEE3;stop-color:color(display-p3 1.0000 0.8078 0.8902);stop-opacity:1;"/>
</linearGradient>
<linearGradient id="paint3_linear_2633_5201" x1="103.677" y1="250.418" x2="103.677" y2="284.995" gradientUnits="userSpaceOnUse">
<stop stop-color="#F685B6" style="stop-color:#F685B6;stop-color:color(display-p3 0.9647 0.5216 0.7137);stop-opacity:1;"/>
<stop offset="1" stop-color="#CA4A87" style="stop-color:#CA4A87;stop-color:color(display-p3 0.7922 0.2902 0.5294);stop-opacity:1;"/>
</linearGradient>
</defs>
</svg>
