<svg width="501" height="500" viewBox="0 0 501 500" fill="none" xmlns="http://www.w3.org/2000/svg">
<mask id="mask0_2635_5201" style="mask-type:luminance" maskUnits="userSpaceOnUse" x="73" y="197" width="355" height="105">
<path d="M73.6523 197.98H427.231V301.857H73.6523V197.98Z" fill="white" style="fill:white;fill-opacity:1;"/>
</mask>
<g mask="url(#mask0_2635_5201)">
<path d="M253.41 220.406C251.808 218.964 251.08 217.232 251.08 215.068C251.08 212.904 251.808 211.173 253.41 209.73C255.011 208.287 257.049 207.566 259.524 207.566C261.999 207.566 264.037 208.287 265.638 209.586C267.24 211.029 267.968 212.76 267.968 214.78C267.968 217.088 267.24 218.964 265.638 220.406C264.037 221.849 261.999 222.57 259.524 222.57C257.049 222.57 255.011 221.849 253.41 220.406ZM252.827 227.62H266.512V274.364H252.827V227.62ZM333.914 211.317H347.599V274.364H333.914V211.317ZM366.379 272.056C362.448 270.036 359.391 267.15 357.062 263.544C354.878 259.937 353.713 255.753 353.713 251.136C353.713 246.52 354.878 242.336 357.062 238.729C359.245 235.122 362.302 232.237 366.379 230.217C370.309 228.197 374.822 227.187 379.772 227.187C384.722 227.187 389.235 228.197 393.165 230.217C397.095 232.237 400.153 235.122 402.336 238.729C404.52 242.336 405.685 246.52 405.685 251.136C405.685 255.753 404.52 259.937 402.336 263.544C400.153 267.15 397.095 270.036 393.165 272.056C389.235 274.075 384.867 275.086 379.772 275.086C374.822 275.086 370.455 274.075 366.379 272.056ZM388.507 260.514C390.69 258.206 391.855 255.032 391.855 251.136C391.855 247.241 390.69 244.067 388.507 241.759C386.323 239.45 383.411 238.296 379.918 238.296C376.423 238.296 373.512 239.45 371.182 241.759C368.854 244.067 367.689 247.241 367.689 251.136C367.689 255.032 368.854 258.206 371.182 260.514C373.512 262.822 376.423 263.977 379.918 263.977C383.266 263.977 386.177 262.822 388.507 260.514ZM412.673 220.406C411.072 218.964 410.343 217.232 410.343 215.068C410.343 212.904 411.072 211.173 412.673 209.73C414.274 208.287 416.312 207.566 418.787 207.566C421.262 207.566 423.3 208.287 424.901 209.586C426.503 211.029 427.231 212.76 427.231 214.78C427.231 217.088 426.503 218.964 424.901 220.406C423.3 221.849 421.262 222.57 418.787 222.57C416.166 222.57 414.128 221.849 412.673 220.406ZM411.945 227.62H425.63V274.364H411.945V227.62ZM230.7 211.317V250.992C230.7 254.888 229.535 258.061 227.205 260.37C224.876 262.678 222.111 263.833 218.616 263.833C215.122 263.833 212.211 262.678 209.881 260.37C207.553 258.061 206.388 254.888 206.388 250.992C206.388 247.097 207.553 243.923 209.881 241.614C212.211 239.306 215.122 238.152 218.616 238.152C221.383 238.152 223.712 238.873 225.75 240.461V229.062C223.129 227.62 219.926 226.898 216.287 226.898C211.774 226.898 207.843 227.909 204.204 229.784C200.564 231.804 197.799 234.545 195.761 238.152C193.723 241.759 192.703 246.087 192.703 250.848C192.703 255.609 193.723 259.937 195.761 263.544C197.799 267.15 200.564 270.036 204.204 271.911C207.843 273.931 211.774 274.797 216.287 274.797C222.692 274.797 227.642 272.777 230.991 268.738V274.075H244.093V211.317H230.7ZM324.743 238.296C322.705 234.689 319.939 231.804 316.3 229.928C312.66 227.909 308.729 226.898 304.362 226.898C297.811 226.898 292.861 228.918 289.513 232.958V227.62H276.411V291.244H289.95V250.848C289.95 246.953 291.115 243.778 293.298 241.47C295.482 239.162 298.394 238.008 301.887 238.008C305.381 238.008 308.293 239.162 310.477 241.47C312.66 243.778 313.825 246.953 313.825 250.848C313.825 254.743 312.66 257.917 310.477 260.225C308.293 262.534 305.381 263.688 301.887 263.688C299.122 263.688 296.937 262.967 294.899 261.524V272.777C297.52 274.075 300.723 274.797 304.216 274.797C308.584 274.797 312.66 273.787 316.154 271.767C319.794 269.747 322.559 267.006 324.597 263.4C326.635 259.793 327.655 255.609 327.655 250.703C327.8 246.087 326.781 241.903 324.743 238.296Z" fill="#090A0B" style="fill:#090A0B;fill:color(display-p3 0.0353 0.0392 0.0431);fill-opacity:1;"/>
<path fill-rule="evenodd" clip-rule="evenodd" d="M83.6641 197.98H145.599L175.624 249.919H153.722L133.705 215.341H93.6723L83.6641 197.98Z" fill="url(#paint0_linear_2635_5201)" style=""/>
<path fill-rule="evenodd" clip-rule="evenodd" d="M143.713 301.856H83.6641L93.6715 284.495H133.705L153.721 249.918H175.623L145.598 301.856H143.713Z" fill="url(#paint1_linear_2635_5201)" style=""/>
<path fill-rule="evenodd" clip-rule="evenodd" d="M93.6689 215.34L73.6523 249.918H113.685L133.702 215.34H93.6689Z" fill="url(#paint2_linear_2635_5201)" style=""/>
<path fill-rule="evenodd" clip-rule="evenodd" d="M93.6689 284.495L73.6523 249.918H113.685L133.702 284.495H93.6689Z" fill="url(#paint3_linear_2635_5201)" style=""/>
</g>
<defs>
<linearGradient id="paint0_linear_2635_5201" x1="129.644" y1="197.98" x2="129.644" y2="249.919" gradientUnits="userSpaceOnUse">
<stop stop-color="#842EFF" style="stop-color:#842EFF;stop-color:color(display-p3 0.5176 0.1804 1.0000);stop-opacity:1;"/>
<stop offset="0.995" stop-color="#3D04BD" style="stop-color:#3D04BD;stop-color:color(display-p3 0.2392 0.0157 0.7412);stop-opacity:1;"/>
</linearGradient>
<linearGradient id="paint1_linear_2635_5201" x1="129.644" y1="249.918" x2="129.644" y2="301.856" gradientUnits="userSpaceOnUse">
<stop stop-color="#BA89FF" style="stop-color:#BA89FF;stop-color:color(display-p3 0.7294 0.5373 1.0000);stop-opacity:1;"/>
<stop offset="1" stop-color="#EBDCFF" style="stop-color:#EBDCFF;stop-color:color(display-p3 0.9216 0.8627 1.0000);stop-opacity:1;"/>
</linearGradient>
<linearGradient id="paint2_linear_2635_5201" x1="103.677" y1="215.34" x2="103.677" y2="249.917" gradientUnits="userSpaceOnUse">
<stop stop-color="#FFACCF" style="stop-color:#FFACCF;stop-color:color(display-p3 1.0000 0.6745 0.8118);stop-opacity:1;"/>
<stop offset="1" stop-color="#FFCEE3" style="stop-color:#FFCEE3;stop-color:color(display-p3 1.0000 0.8078 0.8902);stop-opacity:1;"/>
</linearGradient>
<linearGradient id="paint3_linear_2635_5201" x1="103.677" y1="249.918" x2="103.677" y2="284.495" gradientUnits="userSpaceOnUse">
<stop stop-color="#F685B6" style="stop-color:#F685B6;stop-color:color(display-p3 0.9647 0.5216 0.7137);stop-opacity:1;"/>
<stop offset="1" stop-color="#CA4A87" style="stop-color:#CA4A87;stop-color:color(display-p3 0.7922 0.2902 0.5294);stop-opacity:1;"/>
</linearGradient>
</defs>
</svg>
