<svg width="500" height="500" viewBox="0 0 500 500" fill="none" xmlns="http://www.w3.org/2000/svg">
<mask id="mask0_2635_5211" style="mask-type:luminance" maskUnits="userSpaceOnUse" x="73" y="197" width="354" height="105">
<path d="M73.1523 197.98H426.731V301.857H73.1523V197.98Z" fill="white" style="fill:white;fill-opacity:1;"/>
</mask>
<g mask="url(#mask0_2635_5211)">
<path d="M252.91 220.406C251.308 218.964 250.58 217.232 250.58 215.068C250.58 212.904 251.308 211.173 252.91 209.73C254.511 208.287 256.549 207.566 259.024 207.566C261.499 207.566 263.537 208.287 265.138 209.586C266.74 211.029 267.468 212.76 267.468 214.78C267.468 217.088 266.74 218.964 265.138 220.406C263.537 221.849 261.499 222.57 259.024 222.57C256.549 222.57 254.511 221.849 252.91 220.406ZM252.327 227.62H266.012V274.364H252.327V227.62ZM333.414 211.317H347.099V274.364H333.414V211.317ZM365.879 272.056C361.948 270.036 358.891 267.15 356.562 263.544C354.378 259.937 353.213 255.753 353.213 251.136C353.213 246.52 354.378 242.336 356.562 238.729C358.745 235.122 361.802 232.237 365.879 230.217C369.809 228.197 374.322 227.187 379.272 227.187C384.222 227.187 388.735 228.197 392.665 230.217C396.595 232.237 399.653 235.122 401.836 238.729C404.02 242.336 405.185 246.52 405.185 251.136C405.185 255.753 404.02 259.937 401.836 263.544C399.653 267.15 396.595 270.036 392.665 272.056C388.735 274.075 384.367 275.086 379.272 275.086C374.322 275.086 369.955 274.075 365.879 272.056ZM388.007 260.514C390.19 258.206 391.355 255.032 391.355 251.136C391.355 247.241 390.19 244.067 388.007 241.759C385.823 239.45 382.911 238.296 379.418 238.296C375.923 238.296 373.012 239.45 370.682 241.759C368.354 244.067 367.189 247.241 367.189 251.136C367.189 255.032 368.354 258.206 370.682 260.514C373.012 262.822 375.923 263.977 379.418 263.977C382.766 263.977 385.677 262.822 388.007 260.514ZM412.173 220.406C410.572 218.964 409.843 217.232 409.843 215.068C409.843 212.904 410.572 211.173 412.173 209.73C413.774 208.287 415.812 207.566 418.287 207.566C420.762 207.566 422.8 208.287 424.401 209.586C426.003 211.029 426.731 212.76 426.731 214.78C426.731 217.088 426.003 218.964 424.401 220.406C422.8 221.849 420.762 222.57 418.287 222.57C415.666 222.57 413.628 221.849 412.173 220.406ZM411.445 227.62H425.13V274.364H411.445V227.62ZM230.2 211.317V250.992C230.2 254.888 229.035 258.061 226.705 260.37C224.376 262.678 221.611 263.833 218.116 263.833C214.622 263.833 211.711 262.678 209.381 260.37C207.053 258.061 205.888 254.888 205.888 250.992C205.888 247.097 207.053 243.923 209.381 241.614C211.711 239.306 214.622 238.152 218.116 238.152C220.883 238.152 223.212 238.873 225.25 240.461V229.062C222.629 227.62 219.426 226.898 215.787 226.898C211.274 226.898 207.343 227.909 203.704 229.784C200.064 231.804 197.299 234.545 195.261 238.152C193.223 241.759 192.203 246.087 192.203 250.848C192.203 255.609 193.223 259.937 195.261 263.544C197.299 267.15 200.064 270.036 203.704 271.911C207.343 273.931 211.274 274.797 215.787 274.797C222.192 274.797 227.142 272.777 230.491 268.738V274.075H243.593V211.317H230.2ZM324.243 238.296C322.205 234.689 319.439 231.804 315.8 229.928C312.16 227.909 308.229 226.898 303.862 226.898C297.311 226.898 292.361 228.918 289.013 232.958V227.62H275.911V291.244H289.45V250.848C289.45 246.953 290.615 243.778 292.798 241.47C294.982 239.162 297.894 238.008 301.387 238.008C304.881 238.008 307.793 239.162 309.977 241.47C312.16 243.778 313.325 246.953 313.325 250.848C313.325 254.743 312.16 257.917 309.977 260.225C307.793 262.534 304.881 263.688 301.387 263.688C298.622 263.688 296.437 262.967 294.399 261.524V272.777C297.02 274.075 300.223 274.797 303.716 274.797C308.084 274.797 312.16 273.787 315.654 271.767C319.294 269.747 322.059 267.006 324.097 263.4C326.135 259.793 327.155 255.609 327.155 250.703C327.3 246.087 326.281 241.903 324.243 238.296Z" fill="#F5F7FA" style="fill:#F5F7FA;fill:color(display-p3 0.9608 0.9686 0.9804);fill-opacity:1;"/>
<path fill-rule="evenodd" clip-rule="evenodd" d="M83.1641 197.98H145.099L175.124 249.919H153.222L133.205 215.341H93.1723L83.1641 197.98Z" fill="url(#paint0_linear_2635_5211)" style=""/>
<path fill-rule="evenodd" clip-rule="evenodd" d="M143.213 301.856H83.1641L93.1715 284.495H133.205L153.221 249.918H175.123L145.098 301.856H143.213Z" fill="url(#paint1_linear_2635_5211)" style=""/>
<path fill-rule="evenodd" clip-rule="evenodd" d="M93.1689 215.34L73.1523 249.918H113.185L133.202 215.34H93.1689Z" fill="url(#paint2_linear_2635_5211)" style=""/>
<path fill-rule="evenodd" clip-rule="evenodd" d="M93.1689 284.495L73.1523 249.918H113.185L133.202 284.495H93.1689Z" fill="url(#paint3_linear_2635_5211)" style=""/>
</g>
<defs>
<linearGradient id="paint0_linear_2635_5211" x1="129.144" y1="197.98" x2="129.144" y2="249.919" gradientUnits="userSpaceOnUse">
<stop stop-color="#842EFF" style="stop-color:#842EFF;stop-color:color(display-p3 0.5176 0.1804 1.0000);stop-opacity:1;"/>
<stop offset="0.995" stop-color="#3D04BD" style="stop-color:#3D04BD;stop-color:color(display-p3 0.2392 0.0157 0.7412);stop-opacity:1;"/>
</linearGradient>
<linearGradient id="paint1_linear_2635_5211" x1="129.144" y1="249.918" x2="129.144" y2="301.856" gradientUnits="userSpaceOnUse">
<stop stop-color="#BA89FF" style="stop-color:#BA89FF;stop-color:color(display-p3 0.7294 0.5373 1.0000);stop-opacity:1;"/>
<stop offset="1" stop-color="#EBDCFF" style="stop-color:#EBDCFF;stop-color:color(display-p3 0.9216 0.8627 1.0000);stop-opacity:1;"/>
</linearGradient>
<linearGradient id="paint2_linear_2635_5211" x1="103.177" y1="215.34" x2="103.177" y2="249.917" gradientUnits="userSpaceOnUse">
<stop stop-color="#FFACCF" style="stop-color:#FFACCF;stop-color:color(display-p3 1.0000 0.6745 0.8118);stop-opacity:1;"/>
<stop offset="1" stop-color="#FFCEE3" style="stop-color:#FFCEE3;stop-color:color(display-p3 1.0000 0.8078 0.8902);stop-opacity:1;"/>
</linearGradient>
<linearGradient id="paint3_linear_2635_5211" x1="103.177" y1="249.918" x2="103.177" y2="284.495" gradientUnits="userSpaceOnUse">
<stop stop-color="#F685B6" style="stop-color:#F685B6;stop-color:color(display-p3 0.9647 0.5216 0.7137);stop-opacity:1;"/>
<stop offset="1" stop-color="#CA4A87" style="stop-color:#CA4A87;stop-color:color(display-p3 0.7922 0.2902 0.5294);stop-opacity:1;"/>
</linearGradient>
</defs>
</svg>
