<svg width="500" height="501" viewBox="0 0 500 501" fill="none" xmlns="http://www.w3.org/2000/svg">
<rect width="500" height="500" transform="translate(0 0.5)" fill="#090A0B" style="fill:#090A0B;fill:color(display-p3 0.0353 0.0392 0.0431);fill-opacity:1;"/>
<mask id="mask0_2633_5211" style="mask-type:luminance" maskUnits="userSpaceOnUse" x="73" y="198" width="354" height="105">
<path d="M73.1523 198.48H426.731V302.357H73.1523V198.48Z" fill="white" style="fill:white;fill-opacity:1;"/>
</mask>
<g mask="url(#mask0_2633_5211)">
<path d="M252.91 220.906C251.308 219.464 250.58 217.732 250.58 215.568C250.58 213.404 251.308 211.673 252.91 210.23C254.511 208.787 256.549 208.066 259.024 208.066C261.499 208.066 263.537 208.787 265.138 210.086C266.74 211.529 267.468 213.26 267.468 215.28C267.468 217.588 266.74 219.464 265.138 220.906C263.537 222.349 261.499 223.07 259.024 223.07C256.549 223.07 254.511 222.349 252.91 220.906ZM252.327 228.12H266.012V274.864H252.327V228.12ZM333.414 211.817H347.099V274.864H333.414V211.817ZM365.879 272.556C361.948 270.536 358.891 267.65 356.562 264.044C354.378 260.437 353.213 256.253 353.213 251.636C353.213 247.02 354.378 242.836 356.562 239.229C358.745 235.622 361.802 232.737 365.879 230.717C369.809 228.697 374.322 227.687 379.272 227.687C384.222 227.687 388.735 228.697 392.665 230.717C396.595 232.737 399.653 235.622 401.836 239.229C404.02 242.836 405.185 247.02 405.185 251.636C405.185 256.253 404.02 260.437 401.836 264.044C399.653 267.65 396.595 270.536 392.665 272.556C388.735 274.575 384.367 275.586 379.272 275.586C374.322 275.586 369.955 274.575 365.879 272.556ZM388.007 261.014C390.19 258.706 391.355 255.532 391.355 251.636C391.355 247.741 390.19 244.567 388.007 242.259C385.823 239.95 382.911 238.796 379.418 238.796C375.923 238.796 373.012 239.95 370.682 242.259C368.354 244.567 367.189 247.741 367.189 251.636C367.189 255.532 368.354 258.706 370.682 261.014C373.012 263.322 375.923 264.477 379.418 264.477C382.766 264.477 385.677 263.322 388.007 261.014ZM412.173 220.906C410.572 219.464 409.843 217.732 409.843 215.568C409.843 213.404 410.572 211.673 412.173 210.23C413.774 208.787 415.812 208.066 418.287 208.066C420.762 208.066 422.8 208.787 424.401 210.086C426.003 211.529 426.731 213.26 426.731 215.28C426.731 217.588 426.003 219.464 424.401 220.906C422.8 222.349 420.762 223.07 418.287 223.07C415.666 223.07 413.628 222.349 412.173 220.906ZM411.445 228.12H425.13V274.864H411.445V228.12ZM230.2 211.817V251.492C230.2 255.388 229.035 258.561 226.705 260.87C224.376 263.178 221.611 264.333 218.116 264.333C214.622 264.333 211.711 263.178 209.381 260.87C207.053 258.561 205.888 255.388 205.888 251.492C205.888 247.597 207.053 244.423 209.381 242.114C211.711 239.806 214.622 238.652 218.116 238.652C220.883 238.652 223.212 239.373 225.25 240.961V229.562C222.629 228.12 219.426 227.398 215.787 227.398C211.274 227.398 207.343 228.409 203.704 230.284C200.064 232.304 197.299 235.045 195.261 238.652C193.223 242.259 192.203 246.587 192.203 251.348C192.203 256.109 193.223 260.437 195.261 264.044C197.299 267.65 200.064 270.536 203.704 272.411C207.343 274.431 211.274 275.297 215.787 275.297C222.192 275.297 227.142 273.277 230.491 269.238V274.575H243.593V211.817H230.2ZM324.243 238.796C322.205 235.189 319.439 232.304 315.8 230.428C312.16 228.409 308.229 227.398 303.862 227.398C297.311 227.398 292.361 229.418 289.013 233.458V228.12H275.911V291.744H289.45V251.348C289.45 247.453 290.615 244.278 292.798 241.97C294.982 239.662 297.894 238.508 301.387 238.508C304.881 238.508 307.793 239.662 309.977 241.97C312.16 244.278 313.325 247.453 313.325 251.348C313.325 255.243 312.16 258.417 309.977 260.725C307.793 263.034 304.881 264.188 301.387 264.188C298.622 264.188 296.437 263.467 294.399 262.024V273.277C297.02 274.575 300.223 275.297 303.716 275.297C308.084 275.297 312.16 274.287 315.654 272.267C319.294 270.247 322.059 267.506 324.097 263.9C326.135 260.293 327.155 256.109 327.155 251.203C327.3 246.587 326.281 242.403 324.243 238.796Z" fill="#F5F7FA" style="fill:#F5F7FA;fill:color(display-p3 0.9608 0.9686 0.9804);fill-opacity:1;"/>
<path fill-rule="evenodd" clip-rule="evenodd" d="M83.1641 198.48H145.099L175.124 250.419H153.222L133.205 215.841H93.1723L83.1641 198.48Z" fill="url(#paint0_linear_2633_5211)" style=""/>
<path fill-rule="evenodd" clip-rule="evenodd" d="M143.213 302.356H83.1641L93.1715 284.995H133.205L153.221 250.418H175.123L145.098 302.356H143.213Z" fill="url(#paint1_linear_2633_5211)" style=""/>
<path fill-rule="evenodd" clip-rule="evenodd" d="M93.1689 215.84L73.1523 250.418H113.185L133.202 215.84H93.1689Z" fill="url(#paint2_linear_2633_5211)" style=""/>
<path fill-rule="evenodd" clip-rule="evenodd" d="M93.1689 284.995L73.1523 250.418H113.185L133.202 284.995H93.1689Z" fill="url(#paint3_linear_2633_5211)" style=""/>
</g>
<defs>
<linearGradient id="paint0_linear_2633_5211" x1="129.144" y1="198.48" x2="129.144" y2="250.419" gradientUnits="userSpaceOnUse">
<stop stop-color="#842EFF" style="stop-color:#842EFF;stop-color:color(display-p3 0.5176 0.1804 1.0000);stop-opacity:1;"/>
<stop offset="0.995" stop-color="#3D04BD" style="stop-color:#3D04BD;stop-color:color(display-p3 0.2392 0.0157 0.7412);stop-opacity:1;"/>
</linearGradient>
<linearGradient id="paint1_linear_2633_5211" x1="129.144" y1="250.418" x2="129.144" y2="302.356" gradientUnits="userSpaceOnUse">
<stop stop-color="#BA89FF" style="stop-color:#BA89FF;stop-color:color(display-p3 0.7294 0.5373 1.0000);stop-opacity:1;"/>
<stop offset="1" stop-color="#EBDCFF" style="stop-color:#EBDCFF;stop-color:color(display-p3 0.9216 0.8627 1.0000);stop-opacity:1;"/>
</linearGradient>
<linearGradient id="paint2_linear_2633_5211" x1="103.177" y1="215.84" x2="103.177" y2="250.417" gradientUnits="userSpaceOnUse">
<stop stop-color="#FFACCF" style="stop-color:#FFACCF;stop-color:color(display-p3 1.0000 0.6745 0.8118);stop-opacity:1;"/>
<stop offset="1" stop-color="#FFCEE3" style="stop-color:#FFCEE3;stop-color:color(display-p3 1.0000 0.8078 0.8902);stop-opacity:1;"/>
</linearGradient>
<linearGradient id="paint3_linear_2633_5211" x1="103.177" y1="250.418" x2="103.177" y2="284.995" gradientUnits="userSpaceOnUse">
<stop stop-color="#F685B6" style="stop-color:#F685B6;stop-color:color(display-p3 0.9647 0.5216 0.7137);stop-opacity:1;"/>
<stop offset="1" stop-color="#CA4A87" style="stop-color:#CA4A87;stop-color:color(display-p3 0.7922 0.2902 0.5294);stop-opacity:1;"/>
</linearGradient>
</defs>
</svg>
